<svg xmlns="http://www.w3.org/2000/svg" viewBox="0 0 277.01 238.57"><defs>
<style>.cls-1{fill:none;stroke:white;stroke-miterlimit:10;stroke-width:9px;}
</style></defs><g id="Layer_2" data-name="Layer 2">
<g id="Layer_3" data-name="Layer 3">
<path id="cable_connector" class="cls-1" d="M173.27,114.07v-9.25a10,10,0,0,0-10-10h-50a10,10,0,0,0-10,10v9.25"/>
<path id="controller_outline" class="cls-1" d="M212.51,114.07a60,60,0,0,1,60,60c0,34.83-30.34,59.65-60,60-21.47.25-41.5-12.32-51.89-29.85H116.39C106,221.75,86,234.32,64.5,234.07c-29.66-.35-60-25.17-60-60a60,60,0,0,1,60-60Z"/>
<circle id="top_button" class="cls-1" cx="213.04" cy="144.25" r="10"/>
<circle id="bottom_button" class="cls-1" cx="213.04" cy="203.94" r="10"/>
<circle id="right_button" class="cls-1" cx="242.51" cy="174.31" r="10"/>
<circle id="left_button" class="cls-1" cx="182.82" cy="174.31" r="10"/>
<path id="d-pad" class="cls-1" d="M72.47,204.33h-18a1,1,0,0,1-1-1l0-18a1,1,0,0,0-1-1h-18a1,1,0,0,1-1-1v-18a1,1,0,0,1,1-1h18a1,1,0,0,0,1-1l0-18a1,1,0,0,1,1-1h18a1,1,0,0,1,1,1v18a1,1,0,0,0,1,1l17.94,0a1,1,0,0,1,1,1v18a1,1,0,0,1-1,1H74.47a1,1,0,0,0-1,1v18A1,1,0,0,1,72.47,204.33Z"/>
<path id="cable" class="cls-1" d="M138.91,3.81,119.6,15.93c-12.95,8.61-10,24.42,5.35,25.6l16.39,3.69c7.72,2.25,22.23,14.38,7,24.59-.74.5-7.66,3.51-9.3,8.2a5.84,5.84,0,0,0-.42,1.79l-.32,15"/>
</g></g></svg>