<svg xmlns="http://www.w3.org/2000/svg" viewBox="0 0 329.36 469.87">
<defs>
<style>.cls-1{fill:#fffce3;stroke:#ffe174;}.cls-1,.cls-3,.cls-5{stroke-miterlimit:10;stroke-width:11px;}.cls-2{fill:#ffe89b;}.cls-3{fill:#fff;}.cls-3,.cls-5{stroke:#1d1d1b;}.cls-4{fill:#e6332a;}.cls-5{fill:none;}</style>
</defs>
<g id="Layer_2" data-name="Layer 2">
    <g id="Popcorn_Group">
        <g id="Poppped_Corn_9"><path class="cls-1" d="M186.78,64.17c-.82.81-.71,1-.77,2.28-.55,12.82-11.15,22.77-23.67,22.23s-22.22-11.38-21.66-24.2a23.65,23.65,0,0,1,5.77-14.77s1.6-2.41,1.31-2.62c-1-.78-12.37-10-12-19.34C136.35,14.93,147,5,159.48,5.52c9.29.41,16.05,4,19.2,12.35,0,0,1.07,2.75,1.81,2.48s7.53-3.27,12.34-3.06c12.52.54,22.22,11.38,21.66,24.2s-11.16,22.78-23.68,22.23C190.81,63.72,187.65,63.32,186.78,64.17Z"/><ellipse class="cls-2" cx="158.14" cy="27.5" rx="9.3" ry="9.16" transform="translate(123.8 184.29) rotate(-87.51)"/></g>
        <g id="Poppped_Corn_8"><path class="cls-1" d="M199.3,56.23c1.12-.24,1.15-.48,1.87-1.51,7.37-10.5,21.66-13.19,31.92-6s12.6,21.55,5.23,32.06a23.78,23.78,0,0,1-12.81,9.34s-2.65,1.16-2.52,1.5c.46,1.22,5,15.11-.32,22.73-7.38,10.51-21.67,13.19-31.93,6-7.61-5.35-11.37-12-9.53-20.75,0,0,.58-2.89-.19-3.06s-8.11-1.3-12.06-4.06c-10.26-7.2-12.6-21.55-5.22-32.06s21.66-13.19,31.92-6C195.66,54.44,198.1,56.48,199.3,56.23Z"/><ellipse class="cls-2" cx="203.7" cy="102.55" rx="9.3" ry="9.16" transform="translate(2.76 210.41) rotate(-54.95)"/></g>
        <g id="Poppped_Corn_7"><path class="cls-1" d="M115.88,117.77c-1.21-.14-1.31.09-2.35.89A24.69,24.69,0,0,1,83.41,79.54a24.14,24.14,0,0,1,15.81-5.13s3-.29,3-.68c-.11-1.39-.65-17.06,7-23a24.47,24.47,0,0,1,34.28,4.77c6.17,8,8,16.08,3.57,24.32,0,0-1.45,2.74-.71,3.18s7.87,4.07,11.07,8.22a24.25,24.25,0,1,1-38.43,29.59S117.17,117.91,115.88,117.77Z"/><ellipse class="cls-2" cx="125.1" cy="69.19" rx="9.7" ry="9.96" transform="translate(-16.23 90.69) rotate(-37.6)"/></g>
        <g id="Poppped_Corn_6"><path class="cls-1" d="M227.86,124.31c-1-.7-1.19-.55-2.49-.35a24.69,24.69,0,0,1-7.52-48.79,24.12,24.12,0,0,1,16.32,3.13s2.8,1.21,3,.85c.58-1.26,7.66-15.25,17.26-16.73a24.45,24.45,0,0,1,27.73,20.69c1.55,10-.72,18-8.59,23,0,0-2.59,1.71-2.16,2.45s4.94,7.36,5.74,12.54a24.26,24.26,0,1,1-47.94,7.4S228.92,125.07,227.86,124.31Z"/><ellipse class="cls-2" cx="259.36" cy="86.2" rx="9.7" ry="9.96" transform="translate(-10.11 40.56) rotate(-8.77)"/></g>
        <g id="Poppped_Corn_5"><path class="cls-1" d="M75,146c-1,.39-1,.61-1.53,1.69-5.17,11-18.5,15.6-29.79,10.29s-16.24-18.51-11.07-29.5A21.76,21.76,0,0,1,43.3,117.81s2.34-1.49,2.15-1.79c-.67-1.08-7.7-13.54-4-21.51,5.17-11,18.51-15.6,29.79-10.3,8.38,3.94,13.27,9.7,13.12,18.21,0,0,0,2.81.76,2.86s8.1,0,12.44,2.09c11.28,5.3,16.24,18.51,11.07,29.5s-18.5,15.61-29.79,10.3C78.89,147.17,76.14,145.59,75,146Z"/><ellipse class="cls-2" cx="62.08" cy="102.9" rx="8.8" ry="9.11" transform="translate(-57.46 115.3) rotate(-64.82)"/></g>
        <g id="Poppped_Corn_4"><path class="cls-1" d="M156.78,84.27c1.06-.34,1.05-.56,1.61-1.61,5.69-10.73,19.23-14.7,30.25-8.86s15.34,19.27,9.65,30A21.77,21.77,0,0,1,187.13,114s-2.4,1.37-2.23,1.68c.61,1.11,7,13.89,2.91,21.67-5.68,10.74-19.23,14.7-30.24,8.87-8.18-4.34-12.79-10.32-12.24-18.81,0,0,.15-2.82-.62-2.9s-8.09-.43-12.32-2.68c-11-5.84-15.34-19.27-9.66-30S142,77.09,153,82.93C153,82.93,155.65,84.63,156.78,84.27Z"/><ellipse class="cls-2" cx="167.66" cy="127.95" rx="8.8" ry="9.11" transform="translate(-23.9 216.18) rotate(-62.08)"/></g>
        <g id="Poppped_Corn_3"><path class="cls-1" d="M152.46,148.41c.58,1.11.83,1.07,2.12,1.53,13.14,4.72,20.09,18.83,15.53,31.53s-18.91,19.15-32.05,14.43a26,26,0,0,1-13.49-10.71s-2-2.42-2.31-2.19c-1.14.81-14.36,9.46-23.89,6-13.14-4.72-20.09-18.84-15.53-31.53,3.38-9.42,9.28-15.21,19-15.74,0,0,3.2-.21,3.16-1.06s-1-8.8.75-13.68c4.56-12.7,18.91-19.16,32.05-14.44s20.09,18.84,15.53,31.53C153.28,144.12,151.85,147.24,152.46,148.41Z"/><ellipse class="cls-2" cx="105.23" cy="165.99" rx="9.85" ry="10.11" transform="translate(-86.57 208.9) rotate(-70.24)"/></g>
        <g id="Poppped_Corn_2"><path class="cls-1" d="M78.47,172.86c-.2,1.23,0,1.35.78,2.49C87,187,84.09,202.46,72.84,209.91s-26.61,4-34.31-7.6a25.94,25.94,0,0,1-4.41-16.65s-.15-3.13-.54-3.14c-1.4,0-17.17-1-22.76-9.44C3.11,161.44,6,146,17.23,138.52c8.34-5.53,16.53-6.64,24.6-1.28,0,0,2.69,1.74,3.16,1s4.47-7.66,8.79-10.52c11.25-7.44,26.61-4.05,34.32,7.59s4.84,27.12-6.41,34.56C81.69,169.91,78.68,171.56,78.47,172.86Z"/><ellipse class="cls-2" cx="30.1" cy="158.71" rx="9.85" ry="10.11" transform="translate(-82.62 43) rotate(-33.51)"/></g>
        <g id="Poppped_Corn_1"><path class="cls-1" d="M267.58,132.2c1.05-.1,1.09-.31,1.83-1.17a21.37,21.37,0,0,1,32.44,27.82A20.89,20.89,0,0,1,289.37,166s-2.52.78-2.42,1.1c.33,1.16,3.57,14.33-1.9,20.71a21.16,21.16,0,0,1-29.86,2c-6.65-5.7-9.65-12.2-7.34-20,0,0,.73-2.58,0-2.81s-7.39-2.06-10.84-5a21,21,0,1,1,27.29-31.83S266.46,132.3,267.58,132.2Z"/><ellipse class="cls-2" cx="268.39" cy="174.96" rx="8.39" ry="8.62" transform="translate(-39.13 264.83) rotate(-49.39)"/></g>
        <g id="Popped_Corn"><path class="cls-1" d="M180.76,135.67c.93-1,.8-1.24.8-2.71a27.09,27.09,0,1,1,54.17,0,27.59,27.59,0,0,1-6.12,17.64s-1.78,2.91-1.42,3.15c1.28.86,15.27,11.15,15.27,22.1a27.21,27.21,0,0,1-27.09,27.32c-11.11,0-19.36-3.88-23.54-13.53,0,0-1.43-3.17-2.29-2.82s-8.81,4.24-14.57,4.24a27.33,27.33,0,0,1,0-54.66S179.76,136.72,180.76,135.67Z"/><circle class="cls-2" cx="216.83" cy="177.29" r="10.93"/></g>
    </g>
    <g id="Box_White_Fill"><path class="cls-3" d="M18.05,189.05c-7.32,2.51-13.85,4.85-12.33,15.61l24,239.77c1.1,11,10.3,19.9,21.32,19.94H218.38a17.57,17.57,0,0,0,12.25-4.9l61.64-59.14a13,13,0,0,0,4.29-8.21L323.8,162.61a8.83,8.83,0,0,0-12.56-9L285.57,167l-48.06,25-32.26-7.41q-9.83-2.25-19.8-3.82c-54.42-8.55-98.37-6.77-136.39.36Z"/><line class="cls-3" x1="237.51" y1="191.96" x2="218.38" y2="464.37"/></g>
    <g id="Box_Red_Fill"><polygon class="cls-4" points="50.84 180.85 61.18 464.58 98.61 464.58 98.96 175.86 50.84 180.85"/><polygon class="cls-4" points="143.88 175.86 194.49 182.99 184.51 464.58 144.94 464.22 143.88 175.86"/><polygon class="cls-4" points="266.13 179.07 237.62 192.26 218.37 462.44 247.95 445.33 266.13 179.07"/><polygon class="cls-4" points="296.43 161.96 314.96 151.98 324.59 160.18 296.43 397.57 276.47 416.46 296.43 161.96"/></g>
    <g id="Box_Lines"><line class="cls-5" x1="50.85" y1="180.85" x2="60.83" y2="464.58"/><line class="cls-5" x1="98.25" y1="174.79" x2="97.89" y2="465.64"/><line class="cls-5" x1="144.94" y1="463.86" x2="144.23" y2="175.15"/><line class="cls-5" x1="194.13" y1="182.28" x2="184.51" y2="463.51"/><line class="cls-5" x1="267.56" y1="178" x2="247.24" y2="442.12"/><line class="cls-5" x1="296.79" y1="160.89" x2="275.04" y2="415.39"/></g>
    <g id="Box_Outline"><path class="cls-5" d="M18.05,189.05c-7.32,2.51-13.85,4.85-12.33,15.61l24,239.77c1.1,11,10.3,19.9,21.32,19.94H218.38a17.57,17.57,0,0,0,12.25-4.9l61.64-59.14a13,13,0,0,0,4.29-8.21L323.8,162.61a8.83,8.83,0,0,0-12.56-9L285.57,167l-48.06,25-32.26-7.41q-9.83-2.25-19.8-3.82c-54.42-8.55-98.37-6.77-136.39.36Z"/><line class="cls-5" x1="237.51" y1="191.96" x2="218.38" y2="464.37"/></g>
</g>
</svg>